<?xml version="1.0" encoding="utf-8"?>
<!-- Generator: Adobe Illustrator 23.0.1, SVG Export Plug-In . SVG Version: 6.00 Build 0)  -->
<svg version="1.1" id="Layer_1" xmlns="http://www.w3.org/2000/svg" xmlns:xlink="http://www.w3.org/1999/xlink" x="0px" y="0px"
   viewBox="0 0 32 23" style="enable-background:new 0 0 32 23;" xml:space="preserve">
<path style="fill:#d3dae2;" d="M31,1.9v16.6v1.6v0c0,1-0.8,1.9-1.9,1.9h0h-1.6h-23H2.9h0c-1,0-1.9-0.8-1.9-1.9v0v-1.6V1.9
  C1,1.4,1.4,1,1.9,1h2.6v17.5h23V1h2.6C30.6,1,31,1.4,31,1.9z M25,2c0-0.6-0.4-1-1-1H8C7.4,1,7,1.4,7,2v14h18V2z"/>
</svg>
